<svg width="233" height="163" viewBox="0 0 233 163" fill="none" xmlns="http://www.w3.org/2000/svg">
<path d="M107.056 9.248V11.96H102.592V26H99.232V11.96H94.768V9.248H107.056ZM111.212 11.12C110.62 11.12 110.124 10.936 109.724 10.568C109.34 10.184 109.148 9.712 109.148 9.152C109.148 8.592 109.34 8.128 109.724 7.76C110.124 7.376 110.62 7.184 111.212 7.184C111.804 7.184 112.292 7.376 112.676 7.76C113.076 8.128 113.276 8.592 113.276 9.152C113.276 9.712 113.076 10.184 112.676 10.568C112.292 10.936 111.804 11.12 111.212 11.12ZM112.868 12.704V26H109.508V12.704H112.868ZM128.547 19.064C128.547 19.544 128.515 19.976 128.451 20.36H118.731C118.811 21.32 119.147 22.072 119.739 22.616C120.331 23.16 121.059 23.432 121.923 23.432C123.171 23.432 124.059 22.896 124.587 21.824H128.211C127.827 23.104 127.091 24.16 126.003 24.992C124.915 25.808 123.579 26.216 121.995 26.216C120.715 26.216 119.563 25.936 118.539 25.376C117.531 24.8 116.739 23.992 116.163 22.952C115.603 21.912 115.323 20.712 115.323 19.352C115.323 17.976 115.603 16.768 116.163 15.728C116.723 14.688 117.507 13.888 118.515 13.328C119.523 12.768 120.683 12.488 121.995 12.488C123.259 12.488 124.387 12.76 125.379 13.304C126.387 13.848 127.163 14.624 127.707 15.632C128.267 16.624 128.547 17.768 128.547 19.064ZM125.067 18.104C125.051 17.24 124.739 16.552 124.131 16.04C123.523 15.512 122.779 15.248 121.899 15.248C121.067 15.248 120.363 15.504 119.787 16.016C119.227 16.512 118.883 17.208 118.755 18.104H125.067ZM138.368 12.512C139.952 12.512 141.232 13.016 142.208 14.024C143.184 15.016 143.672 16.408 143.672 18.2V26H140.312V18.656C140.312 17.6 140.048 16.792 139.52 16.232C138.992 15.656 138.272 15.368 137.36 15.368C136.432 15.368 135.696 15.656 135.152 16.232C134.624 16.792 134.36 17.6 134.36 18.656V26H131V12.704H134.36V14.36C134.808 13.784 135.376 13.336 136.064 13.016C136.768 12.68 137.536 12.512 138.368 12.512ZM146.003 19.304C146.003 17.96 146.267 16.768 146.795 15.728C147.339 14.688 148.075 13.888 149.003 13.328C149.931 12.768 150.963 12.488 152.099 12.488C152.963 12.488 153.787 12.68 154.571 13.064C155.355 13.432 155.979 13.928 156.443 14.552V8.24H159.851V26H156.443V24.032C156.027 24.688 155.443 25.216 154.691 25.616C153.939 26.016 153.067 26.216 152.075 26.216C150.955 26.216 149.931 25.928 149.003 25.352C148.075 24.776 147.339 23.968 146.795 22.928C146.267 21.872 146.003 20.664 146.003 19.304ZM156.467 19.352C156.467 18.536 156.307 17.84 155.987 17.264C155.667 16.672 155.235 16.224 154.691 15.92C154.147 15.6 153.563 15.44 152.939 15.44C152.315 15.44 151.739 15.592 151.211 15.896C150.683 16.2 150.251 16.648 149.915 17.24C149.595 17.816 149.435 18.504 149.435 19.304C149.435 20.104 149.595 20.808 149.915 21.416C150.251 22.008 150.683 22.464 151.211 22.784C151.755 23.104 152.331 23.264 152.939 23.264C153.563 23.264 154.147 23.112 154.691 22.808C155.235 22.488 155.667 22.04 155.987 21.464C156.307 20.872 156.467 20.168 156.467 19.352ZM162.269 19.304C162.269 17.96 162.533 16.768 163.061 15.728C163.605 14.688 164.333 13.888 165.245 13.328C166.173 12.768 167.205 12.488 168.341 12.488C169.333 12.488 170.197 12.688 170.933 13.088C171.685 13.488 172.285 13.992 172.733 14.6V12.704H176.117V26H172.733V24.056C172.301 24.68 171.701 25.2 170.933 25.616C170.181 26.016 169.309 26.216 168.317 26.216C167.197 26.216 166.173 25.928 165.245 25.352C164.333 24.776 163.605 23.968 163.061 22.928C162.533 21.872 162.269 20.664 162.269 19.304ZM172.733 19.352C172.733 18.536 172.573 17.84 172.253 17.264C171.933 16.672 171.501 16.224 170.957 15.92C170.413 15.6 169.829 15.44 169.205 15.44C168.581 15.44 168.005 15.592 167.477 15.896C166.949 16.2 166.517 16.648 166.181 17.24C165.861 17.816 165.701 18.504 165.701 19.304C165.701 20.104 165.861 20.808 166.181 21.416C166.517 22.008 166.949 22.464 167.477 22.784C168.021 23.104 168.597 23.264 169.205 23.264C169.829 23.264 170.413 23.112 170.957 22.808C171.501 22.488 171.933 22.04 172.253 21.464C172.573 20.872 172.733 20.168 172.733 19.352ZM184.486 26.216C183.398 26.216 182.422 26.024 181.558 25.64C180.694 25.24 180.006 24.704 179.494 24.032C178.998 23.36 178.726 22.616 178.678 21.8H182.062C182.126 22.312 182.374 22.736 182.806 23.072C183.254 23.408 183.806 23.576 184.462 23.576C185.102 23.576 185.598 23.448 185.95 23.192C186.318 22.936 186.502 22.608 186.502 22.208C186.502 21.776 186.278 21.456 185.83 21.248C185.398 21.024 184.702 20.784 183.742 20.528C182.75 20.288 181.934 20.04 181.294 19.784C180.67 19.528 180.126 19.136 179.662 18.608C179.214 18.08 178.99 17.368 178.99 16.472C178.99 15.736 179.198 15.064 179.614 14.456C180.046 13.848 180.654 13.368 181.438 13.016C182.238 12.664 183.174 12.488 184.246 12.488C185.83 12.488 187.094 12.888 188.038 13.688C188.982 14.472 189.502 15.536 189.598 16.88H186.382C186.334 16.352 186.11 15.936 185.71 15.632C185.326 15.312 184.806 15.152 184.15 15.152C183.542 15.152 183.07 15.264 182.734 15.488C182.414 15.712 182.254 16.024 182.254 16.424C182.254 16.872 182.478 17.216 182.926 17.456C183.374 17.68 184.07 17.912 185.014 18.152C185.974 18.392 186.766 18.64 187.39 18.896C188.014 19.152 188.55 19.552 188.998 20.096C189.462 20.624 189.702 21.328 189.718 22.208C189.718 22.976 189.502 23.664 189.07 24.272C188.654 24.88 188.046 25.36 187.246 25.712C186.462 26.048 185.542 26.216 184.486 26.216ZM210.555 19.064C210.555 19.544 210.523 19.976 210.459 20.36H200.739C200.819 21.32 201.155 22.072 201.747 22.616C202.339 23.16 203.067 23.432 203.931 23.432C205.179 23.432 206.067 22.896 206.595 21.824H210.219C209.835 23.104 209.099 24.16 208.011 24.992C206.923 25.808 205.587 26.216 204.003 26.216C202.723 26.216 201.571 25.936 200.547 25.376C199.539 24.8 198.747 23.992 198.171 22.952C197.611 21.912 197.331 20.712 197.331 19.352C197.331 17.976 197.611 16.768 198.171 15.728C198.731 14.688 199.515 13.888 200.523 13.328C201.531 12.768 202.691 12.488 204.003 12.488C205.267 12.488 206.395 12.76 207.387 13.304C208.395 13.848 209.171 14.624 209.715 15.632C210.275 16.624 210.555 17.768 210.555 19.064ZM207.075 18.104C207.059 17.24 206.747 16.552 206.139 16.04C205.531 15.512 204.787 15.248 203.907 15.248C203.075 15.248 202.371 15.504 201.795 16.016C201.235 16.512 200.891 17.208 200.763 18.104H207.075ZM220.376 12.512C221.96 12.512 223.24 13.016 224.216 14.024C225.192 15.016 225.68 16.408 225.68 18.2V26H222.32V18.656C222.32 17.6 222.056 16.792 221.528 16.232C221 15.656 220.28 15.368 219.368 15.368C218.44 15.368 217.704 15.656 217.16 16.232C216.632 16.792 216.368 17.6 216.368 18.656V26H213.008V12.704H216.368V14.36C216.816 13.784 217.384 13.336 218.072 13.016C218.776 12.68 219.544 12.512 220.376 12.512ZM99.016 44.24V62H95.656V44.24H99.016ZM105.84 48.704V62H102.48V48.704H105.84ZM106.776 45.248L101.256 47.768V45.368L106.776 42.512V45.248ZM116.665 48.512C118.249 48.512 119.529 49.016 120.505 50.024C121.481 51.016 121.969 52.408 121.969 54.2V62H118.609V54.656C118.609 53.6 118.345 52.792 117.817 52.232C117.289 51.656 116.569 51.368 115.657 51.368C114.729 51.368 113.993 51.656 113.449 52.232C112.921 52.792 112.657 53.6 112.657 54.656V62H109.297V48.704H112.657V50.36C113.105 49.784 113.673 49.336 114.361 49.016C115.065 48.68 115.833 48.512 116.665 48.512ZM137.524 55.064C137.524 55.544 137.492 55.976 137.428 56.36H127.708C127.788 57.32 128.124 58.072 128.716 58.616C129.308 59.16 130.036 59.432 130.9 59.432C132.148 59.432 133.036 58.896 133.564 57.824H137.188C136.804 59.104 136.068 60.16 134.98 60.992C133.892 61.808 132.556 62.216 130.972 62.216C129.692 62.216 128.54 61.936 127.516 61.376C126.508 60.8 125.716 59.992 125.14 58.952C124.58 57.912 124.3 56.712 124.3 55.352C124.3 53.976 124.58 52.768 125.14 51.728C125.7 50.688 126.484 49.888 127.492 49.328C128.5 48.768 129.66 48.488 130.972 48.488C132.236 48.488 133.364 48.76 134.356 49.304C135.364 49.848 136.14 50.624 136.684 51.632C137.244 52.624 137.524 53.768 137.524 55.064ZM134.044 54.104C134.028 53.24 133.716 52.552 133.108 52.04C132.5 51.512 131.756 51.248 130.876 51.248C130.044 51.248 129.34 51.504 128.764 52.016C128.204 52.512 127.86 53.208 127.732 54.104H134.044ZM139.112 55.304C139.112 53.96 139.376 52.768 139.904 51.728C140.448 50.688 141.176 49.888 142.088 49.328C143.016 48.768 144.048 48.488 145.184 48.488C146.176 48.488 147.04 48.688 147.776 49.088C148.528 49.488 149.128 49.992 149.576 50.6V48.704H152.96V62H149.576V60.056C149.144 60.68 148.544 61.2 147.776 61.616C147.024 62.016 146.152 62.216 145.16 62.216C144.04 62.216 143.016 61.928 142.088 61.352C141.176 60.776 140.448 59.968 139.904 58.928C139.376 57.872 139.112 56.664 139.112 55.304ZM149.576 55.352C149.576 54.536 149.416 53.84 149.096 53.264C148.776 52.672 148.344 52.224 147.8 51.92C147.256 51.6 146.672 51.44 146.048 51.44C145.424 51.44 144.848 51.592 144.32 51.896C143.792 52.2 143.36 52.648 143.024 53.24C142.704 53.816 142.544 54.504 142.544 55.304C142.544 56.104 142.704 56.808 143.024 57.416C143.36 58.008 143.792 58.464 144.32 58.784C144.864 59.104 145.44 59.264 146.048 59.264C146.672 59.264 147.256 59.112 147.8 58.808C148.344 58.488 148.776 58.04 149.096 57.464C149.416 56.872 149.576 56.168 149.576 55.352Z" fill="white"/>
<path d="M146.94 135.34H141.38L140.46 138H137.52L142.54 124.02H145.8L150.82 138H147.86L146.94 135.34ZM146.18 133.1L144.16 127.26L142.14 133.1H146.18ZM164.636 138H161.836L155.496 128.42V138H152.696V124.02H155.496L161.836 133.62V124.02H164.636V138ZM155.076 122.96C155.196 122.08 155.47 121.427 155.896 121C156.336 120.56 156.89 120.34 157.556 120.34C157.836 120.34 158.083 120.387 158.296 120.48C158.51 120.56 158.75 120.68 159.016 120.84C159.416 121.093 159.75 121.22 160.016 121.22C160.51 121.22 160.796 120.933 160.876 120.36H162.376C162.256 121.24 161.976 121.9 161.536 122.34C161.11 122.767 160.563 122.98 159.896 122.98C159.616 122.98 159.37 122.94 159.156 122.86C158.943 122.767 158.703 122.64 158.436 122.48C158.05 122.213 157.716 122.08 157.436 122.08C156.943 122.08 156.65 122.373 156.556 122.96H155.076ZM173.883 138.14C172.577 138.14 171.377 137.833 170.283 137.22C169.19 136.607 168.323 135.76 167.683 134.68C167.043 133.587 166.723 132.353 166.723 130.98C166.723 129.62 167.043 128.4 167.683 127.32C168.323 126.227 169.19 125.373 170.283 124.76C171.377 124.147 172.577 123.84 173.883 123.84C175.203 123.84 176.403 124.147 177.483 124.76C178.577 125.373 179.437 126.227 180.063 127.32C180.703 128.4 181.023 129.62 181.023 130.98C181.023 132.353 180.703 133.587 180.063 134.68C179.437 135.76 178.577 136.607 177.483 137.22C176.39 137.833 175.19 138.14 173.883 138.14ZM173.883 135.64C174.723 135.64 175.463 135.453 176.103 135.08C176.743 134.693 177.243 134.147 177.603 133.44C177.963 132.733 178.143 131.913 178.143 130.98C178.143 130.047 177.963 129.233 177.603 128.54C177.243 127.833 176.743 127.293 176.103 126.92C175.463 126.547 174.723 126.36 173.883 126.36C173.043 126.36 172.297 126.547 171.643 126.92C171.003 127.293 170.503 127.833 170.143 128.54C169.783 129.233 169.603 130.047 169.603 130.98C169.603 131.913 169.783 132.733 170.143 133.44C170.503 134.147 171.003 134.693 171.643 135.08C172.297 135.453 173.043 135.64 173.883 135.64ZM187.927 138.14C186.953 138.14 186.073 137.973 185.287 137.64C184.513 137.307 183.9 136.827 183.447 136.2C182.993 135.573 182.76 134.833 182.747 133.98H185.747C185.787 134.553 185.987 135.007 186.347 135.34C186.72 135.673 187.227 135.84 187.867 135.84C188.52 135.84 189.033 135.687 189.407 135.38C189.78 135.06 189.967 134.647 189.967 134.14C189.967 133.727 189.84 133.387 189.587 133.12C189.333 132.853 189.013 132.647 188.627 132.5C188.253 132.34 187.733 132.167 187.067 131.98C186.16 131.713 185.42 131.453 184.847 131.2C184.287 130.933 183.8 130.54 183.387 130.02C182.987 129.487 182.787 128.78 182.787 127.9C182.787 127.073 182.993 126.353 183.407 125.74C183.82 125.127 184.4 124.66 185.147 124.34C185.893 124.007 186.747 123.84 187.707 123.84C189.147 123.84 190.313 124.193 191.207 124.9C192.113 125.593 192.613 126.567 192.707 127.82H189.627C189.6 127.34 189.393 126.947 189.007 126.64C188.633 126.32 188.133 126.16 187.507 126.16C186.96 126.16 186.52 126.3 186.187 126.58C185.867 126.86 185.707 127.267 185.707 127.8C185.707 128.173 185.827 128.487 186.067 128.74C186.32 128.98 186.627 129.18 186.987 129.34C187.36 129.487 187.88 129.66 188.547 129.86C189.453 130.127 190.193 130.393 190.767 130.66C191.34 130.927 191.833 131.327 192.247 131.86C192.66 132.393 192.867 133.093 192.867 133.96C192.867 134.707 192.673 135.4 192.287 136.04C191.9 136.68 191.333 137.193 190.587 137.58C189.84 137.953 188.953 138.14 187.927 138.14Z" fill="white"/>
<path d="M118.36 107.02C118.04 105.54 117.48 104.44 116.68 103.72C115.88 102.96 114.74 102.58 113.26 102.58C110.98 102.58 109.34 103.58 108.34 105.58C107.34 107.54 106.82 110.66 106.78 114.94C107.66 113.54 108.92 112.44 110.56 111.64C112.24 110.84 114.08 110.44 116.08 110.44C120 110.44 123.14 111.68 125.5 114.16C127.9 116.64 129.1 120.1 129.1 124.54C129.1 127.46 128.5 130.02 127.3 132.22C126.14 134.42 124.42 136.14 122.14 137.38C119.9 138.62 117.24 139.24 114.16 139.24C108 139.24 103.72 137.32 101.32 133.48C98.92 129.6 97.72 124.04 97.72 116.8C97.72 109.2 98.98 103.56 101.5 99.88C104.06 96.16 108.14 94.3 113.74 94.3C116.74 94.3 119.26 94.9 121.3 96.1C123.38 97.26 124.94 98.8 125.98 100.72C127.06 102.64 127.7 104.74 127.9 107.02H118.36ZM113.62 118.54C111.9 118.54 110.46 119.06 109.3 120.1C108.18 121.1 107.62 122.54 107.62 124.42C107.62 126.34 108.14 127.84 109.18 128.92C110.26 130 111.78 130.54 113.74 130.54C115.5 130.54 116.88 130.02 117.88 128.98C118.92 127.9 119.44 126.44 119.44 124.6C119.44 122.72 118.94 121.24 117.94 120.16C116.94 119.08 115.5 118.54 113.62 118.54Z" fill="white"/>
<circle cx="32.5" cy="68.5" r="32.5" fill="white"/>
<circle cx="32.5" cy="68.5" r="32.5" fill="white"/>
<circle cx="32.5" cy="68.5" r="32.5" fill="white"/>
<circle cx="32.5" cy="68.5" r="32.5" fill="white"/>
<circle cx="32.5" cy="68.5" r="32.5" fill="white"/>
<circle cx="32.5" cy="68.5" r="32.5" fill="white"/>
<g clip-path="url(#clip0_127_73)">
<path d="M47.0498 75.5H26.6925L27.147 77.75H45.7872C46.8567 77.75 47.6494 78.7555 47.4124 79.8115L47.0292 81.5184C48.3272 82.1563 49.2222 83.5035 49.2222 85.0625C49.2222 87.2564 47.4501 89.0312 45.2761 88.9996C43.2051 88.9694 41.5018 87.2677 41.4459 85.1713C41.4153 84.0261 41.8685 82.9881 42.6128 82.2499H28.0539C28.7745 82.9647 29.2222 83.9604 29.2222 85.0625C29.2222 87.2994 27.38 89.1006 25.1479 88.9956C23.166 88.9025 21.5541 87.2811 21.4499 85.2749C21.3695 83.7256 22.1747 82.3601 23.3979 81.6478L18.5197 57.5H13.6667C12.7462 57.5 12 56.7445 12 55.8125V54.6875C12 53.7555 12.7462 53 13.6667 53H20.7867C21.5785 53 22.2609 53.564 22.4196 54.3493L23.0561 57.5H50.3326C51.4022 57.5 52.1949 58.5055 51.9578 59.5615L48.675 74.1865C48.5026 74.9548 47.828 75.5 47.0498 75.5ZM39.9881 66.5H37V62.2812C37 61.8153 36.6269 61.4375 36.1667 61.4375H34.5C34.0398 61.4375 33.6667 61.8153 33.6667 62.2812V66.5H30.6785C29.9361 66.5 29.5643 67.4089 30.0893 67.9404L34.7441 72.6533C35.0695 72.9828 35.5972 72.9828 35.9226 72.6533L40.5774 67.9404C41.1024 67.4089 40.7306 66.5 39.9881 66.5Z" fill="#7F88ED"/>
</g>
<defs>
<clipPath id="clip0_127_73">
<rect width="40" height="36" fill="white" transform="translate(12 53)"/>
</clipPath>
</defs>
</svg>
