<svg width="218" height="163" viewBox="0 0 218 163" fill="none" xmlns="http://www.w3.org/2000/svg">
<path d="M89.512 9.248C91.272 9.248 92.816 9.592 94.144 10.28C95.488 10.968 96.52 11.952 97.24 13.232C97.976 14.496 98.344 15.968 98.344 17.648C98.344 19.328 97.976 20.8 97.24 22.064C96.52 23.312 95.488 24.28 94.144 24.968C92.816 25.656 91.272 26 89.512 26H83.656V9.248H89.512ZM89.392 23.144C91.152 23.144 92.512 22.664 93.472 21.704C94.432 20.744 94.912 19.392 94.912 17.648C94.912 15.904 94.432 14.544 93.472 13.568C92.512 12.576 91.152 12.08 89.392 12.08H87.016V23.144H89.392ZM102.563 11.12C101.971 11.12 101.475 10.936 101.075 10.568C100.691 10.184 100.499 9.712 100.499 9.152C100.499 8.592 100.691 8.128 101.075 7.76C101.475 7.376 101.971 7.184 102.563 7.184C103.155 7.184 103.643 7.376 104.027 7.76C104.427 8.128 104.627 8.592 104.627 9.152C104.627 9.712 104.427 10.184 104.027 10.568C103.643 10.936 103.155 11.12 102.563 11.12ZM104.219 12.704V26H100.859V12.704H104.219ZM112.627 26.216C111.539 26.216 110.563 26.024 109.699 25.64C108.835 25.24 108.147 24.704 107.635 24.032C107.139 23.36 106.867 22.616 106.819 21.8H110.203C110.267 22.312 110.515 22.736 110.947 23.072C111.395 23.408 111.947 23.576 112.603 23.576C113.243 23.576 113.739 23.448 114.091 23.192C114.459 22.936 114.643 22.608 114.643 22.208C114.643 21.776 114.419 21.456 113.971 21.248C113.539 21.024 112.843 20.784 111.883 20.528C110.891 20.288 110.075 20.04 109.435 19.784C108.811 19.528 108.267 19.136 107.803 18.608C107.355 18.08 107.131 17.368 107.131 16.472C107.131 15.736 107.339 15.064 107.755 14.456C108.187 13.848 108.795 13.368 109.579 13.016C110.379 12.664 111.315 12.488 112.387 12.488C113.971 12.488 115.235 12.888 116.179 13.688C117.123 14.472 117.643 15.536 117.739 16.88H114.523C114.475 16.352 114.251 15.936 113.851 15.632C113.467 15.312 112.947 15.152 112.291 15.152C111.683 15.152 111.211 15.264 110.875 15.488C110.555 15.712 110.395 16.024 110.395 16.424C110.395 16.872 110.619 17.216 111.067 17.456C111.515 17.68 112.211 17.912 113.155 18.152C114.115 18.392 114.907 18.64 115.531 18.896C116.155 19.152 116.691 19.552 117.139 20.096C117.603 20.624 117.843 21.328 117.859 22.208C117.859 22.976 117.643 23.664 117.211 24.272C116.795 24.88 116.187 25.36 115.387 25.712C114.603 26.048 113.683 26.216 112.627 26.216ZM132.977 19.064C132.977 19.544 132.945 19.976 132.881 20.36H123.161C123.241 21.32 123.577 22.072 124.169 22.616C124.761 23.16 125.489 23.432 126.353 23.432C127.601 23.432 128.489 22.896 129.017 21.824H132.641C132.257 23.104 131.521 24.16 130.433 24.992C129.345 25.808 128.009 26.216 126.425 26.216C125.145 26.216 123.993 25.936 122.969 25.376C121.961 24.8 121.169 23.992 120.593 22.952C120.033 21.912 119.753 20.712 119.753 19.352C119.753 17.976 120.033 16.768 120.593 15.728C121.153 14.688 121.937 13.888 122.945 13.328C123.953 12.768 125.113 12.488 126.425 12.488C127.689 12.488 128.817 12.76 129.809 13.304C130.817 13.848 131.593 14.624 132.137 15.632C132.697 16.624 132.977 17.768 132.977 19.064ZM129.497 18.104C129.481 17.24 129.169 16.552 128.561 16.04C127.953 15.512 127.209 15.248 126.329 15.248C125.497 15.248 124.793 15.504 124.217 16.016C123.657 16.512 123.313 17.208 123.185 18.104H129.497ZM142.797 12.512C144.381 12.512 145.661 13.016 146.637 14.024C147.613 15.016 148.101 16.408 148.101 18.2V26H144.741V18.656C144.741 17.6 144.477 16.792 143.949 16.232C143.421 15.656 142.701 15.368 141.789 15.368C140.861 15.368 140.125 15.656 139.581 16.232C139.053 16.792 138.789 17.6 138.789 18.656V26H135.429V12.704H138.789V14.36C139.237 13.784 139.805 13.336 140.493 13.016C141.197 12.68 141.965 12.512 142.797 12.512ZM137.781 11.432C137.925 10.376 138.253 9.592 138.765 9.08C139.293 8.552 139.957 8.288 140.757 8.288C141.093 8.288 141.389 8.344 141.645 8.456C141.901 8.552 142.189 8.696 142.509 8.888C142.989 9.192 143.389 9.344 143.709 9.344C144.301 9.344 144.645 9 144.741 8.312H146.541C146.397 9.368 146.061 10.16 145.533 10.688C145.021 11.2 144.365 11.456 143.565 11.456C143.229 11.456 142.933 11.408 142.677 11.312C142.421 11.2 142.133 11.048 141.813 10.856C141.349 10.536 140.949 10.376 140.613 10.376C140.021 10.376 139.669 10.728 139.557 11.432H137.781ZM157.201 26.216C155.921 26.216 154.769 25.936 153.745 25.376C152.721 24.8 151.913 23.992 151.321 22.952C150.745 21.912 150.457 20.712 150.457 19.352C150.457 17.992 150.753 16.792 151.345 15.752C151.953 14.712 152.777 13.912 153.817 13.352C154.857 12.776 156.017 12.488 157.297 12.488C158.577 12.488 159.737 12.776 160.777 13.352C161.817 13.912 162.633 14.712 163.225 15.752C163.833 16.792 164.137 17.992 164.137 19.352C164.137 20.712 163.825 21.912 163.201 22.952C162.593 23.992 161.761 24.8 160.705 25.376C159.665 25.936 158.497 26.216 157.201 26.216ZM157.201 23.288C157.809 23.288 158.377 23.144 158.905 22.856C159.449 22.552 159.881 22.104 160.201 21.512C160.521 20.92 160.681 20.2 160.681 19.352C160.681 18.088 160.345 17.12 159.673 16.448C159.017 15.76 158.209 15.416 157.249 15.416C156.289 15.416 155.481 15.76 154.825 16.448C154.185 17.12 153.865 18.088 153.865 19.352C153.865 20.616 154.177 21.592 154.801 22.28C155.441 22.952 156.241 23.288 157.201 23.288ZM185.04 12.704L176.808 32.288H173.232L176.112 25.664L170.784 12.704H174.552L177.984 21.992L181.464 12.704H185.04ZM100.168 48.512C101.8 48.512 103.112 49.016 104.104 50.024C105.112 51.016 105.616 52.408 105.616 54.2V62H102.256V54.656C102.256 53.616 101.992 52.824 101.464 52.28C100.936 51.72 100.216 51.44 99.304 51.44C98.392 51.44 97.664 51.72 97.12 52.28C96.592 52.824 96.328 53.616 96.328 54.656V62H92.968V54.656C92.968 53.616 92.704 52.824 92.176 52.28C91.648 51.72 90.928 51.44 90.016 51.44C89.088 51.44 88.352 51.72 87.808 52.28C87.28 52.824 87.016 53.616 87.016 54.656V62H83.656V48.704H87.016V50.312C87.448 49.752 88 49.312 88.672 48.992C89.36 48.672 90.112 48.512 90.928 48.512C91.968 48.512 92.896 48.736 93.712 49.184C94.528 49.616 95.16 50.24 95.608 51.056C96.04 50.288 96.664 49.672 97.48 49.208C98.312 48.744 99.208 48.512 100.168 48.512ZM116.676 62L112.164 56.336V62H108.804V44.24H112.164V54.344L116.628 48.704H120.996L115.14 55.376L121.044 62H116.676ZM126.732 51.464V57.896C126.732 58.344 126.836 58.672 127.044 58.88C127.268 59.072 127.636 59.168 128.148 59.168H129.708V62H127.596C124.764 62 123.348 60.624 123.348 57.872V51.464H121.764V48.704H123.348V45.416H126.732V48.704H129.708V51.464H126.732ZM136.979 55.304C136.979 53.96 137.243 52.768 137.771 51.728C138.316 50.688 139.052 49.888 139.98 49.328C140.908 48.768 141.94 48.488 143.076 48.488C143.94 48.488 144.764 48.68 145.548 49.064C146.332 49.432 146.956 49.928 147.42 50.552V44.24H150.828V62H147.42V60.032C147.004 60.688 146.42 61.216 145.668 61.616C144.916 62.016 144.044 62.216 143.052 62.216C141.932 62.216 140.908 61.928 139.98 61.352C139.052 60.776 138.316 59.968 137.771 58.928C137.243 57.872 136.979 56.664 136.979 55.304ZM147.444 55.352C147.444 54.536 147.284 53.84 146.964 53.264C146.644 52.672 146.212 52.224 145.668 51.92C145.124 51.6 144.54 51.44 143.916 51.44C143.292 51.44 142.716 51.592 142.188 51.896C141.66 52.2 141.228 52.648 140.892 53.24C140.572 53.816 140.412 54.504 140.412 55.304C140.412 56.104 140.572 56.808 140.892 57.416C141.228 58.008 141.66 58.464 142.188 58.784C142.732 59.104 143.308 59.264 143.916 59.264C144.54 59.264 145.124 59.112 145.668 58.808C146.212 58.488 146.644 58.04 146.964 57.464C147.284 56.872 147.444 56.168 147.444 55.352ZM155.813 47.12C155.221 47.12 154.725 46.936 154.325 46.568C153.941 46.184 153.749 45.712 153.749 45.152C153.749 44.592 153.941 44.128 154.325 43.76C154.725 43.376 155.221 43.184 155.813 43.184C156.405 43.184 156.893 43.376 157.277 43.76C157.677 44.128 157.877 44.592 157.877 45.152C157.877 45.712 157.677 46.184 157.277 46.568C156.893 46.936 156.405 47.12 155.813 47.12ZM157.469 48.704V62H154.109V48.704H157.469ZM165.997 48.488C166.989 48.488 167.861 48.688 168.613 49.088C169.365 49.472 169.957 49.976 170.389 50.6V48.704H173.773V62.096C173.773 63.328 173.525 64.424 173.029 65.384C172.533 66.36 171.789 67.128 170.797 67.688C169.805 68.264 168.605 68.552 167.197 68.552C165.309 68.552 163.757 68.112 162.541 67.232C161.341 66.352 160.661 65.152 160.501 63.632H163.837C164.013 64.24 164.389 64.72 164.965 65.072C165.557 65.44 166.269 65.624 167.101 65.624C168.077 65.624 168.869 65.328 169.477 64.736C170.085 64.16 170.389 63.28 170.389 62.096V60.032C169.957 60.656 169.357 61.176 168.589 61.592C167.837 62.008 166.973 62.216 165.997 62.216C164.877 62.216 163.853 61.928 162.925 61.352C161.997 60.776 161.261 59.968 160.717 58.928C160.189 57.872 159.925 56.664 159.925 55.304C159.925 53.96 160.189 52.768 160.717 51.728C161.261 50.688 161.989 49.888 162.901 49.328C163.829 48.768 164.861 48.488 165.997 48.488ZM170.389 55.352C170.389 54.536 170.229 53.84 169.909 53.264C169.589 52.672 169.157 52.224 168.613 51.92C168.069 51.6 167.485 51.44 166.861 51.44C166.237 51.44 165.661 51.592 165.133 51.896C164.605 52.2 164.173 52.648 163.837 53.24C163.517 53.816 163.357 54.504 163.357 55.304C163.357 56.104 163.517 56.808 163.837 57.416C164.173 58.008 164.605 58.464 165.133 58.784C165.677 59.104 166.253 59.264 166.861 59.264C167.485 59.264 168.069 59.112 168.613 58.808C169.157 58.488 169.589 58.04 169.909 57.464C170.229 56.872 170.389 56.168 170.389 55.352ZM178.758 47.12C178.166 47.12 177.67 46.936 177.27 46.568C176.886 46.184 176.694 45.712 176.694 45.152C176.694 44.592 176.886 44.128 177.27 43.76C177.67 43.376 178.166 43.184 178.758 43.184C179.35 43.184 179.838 43.376 180.222 43.76C180.622 44.128 180.822 44.592 180.822 45.152C180.822 45.712 180.622 46.184 180.222 46.568C179.838 46.936 179.35 47.12 178.758 47.12ZM180.414 48.704V62H177.054V48.704H180.414ZM187.646 51.464V57.896C187.646 58.344 187.75 58.672 187.958 58.88C188.182 59.072 188.55 59.168 189.062 59.168H190.622V62H188.51C185.678 62 184.262 60.624 184.262 57.872V51.464H182.678V48.704H184.262V45.416H187.646V48.704H190.622V51.464H187.646ZM192.175 55.304C192.175 53.96 192.439 52.768 192.967 51.728C193.511 50.688 194.239 49.888 195.151 49.328C196.079 48.768 197.111 48.488 198.247 48.488C199.239 48.488 200.103 48.688 200.839 49.088C201.591 49.488 202.191 49.992 202.639 50.6V48.704H206.023V62H202.639V60.056C202.207 60.68 201.607 61.2 200.839 61.616C200.087 62.016 199.215 62.216 198.223 62.216C197.103 62.216 196.079 61.928 195.151 61.352C194.239 60.776 193.511 59.968 192.967 58.928C192.439 57.872 192.175 56.664 192.175 55.304ZM202.639 55.352C202.639 54.536 202.479 53.84 202.159 53.264C201.839 52.672 201.407 52.224 200.863 51.92C200.319 51.6 199.735 51.44 199.111 51.44C198.487 51.44 197.911 51.592 197.383 51.896C196.855 52.2 196.423 52.648 196.087 53.24C195.767 53.816 195.607 54.504 195.607 55.304C195.607 56.104 195.767 56.808 196.087 57.416C196.423 58.008 196.855 58.464 197.383 58.784C197.927 59.104 198.503 59.264 199.111 59.264C199.735 59.264 200.319 59.112 200.863 58.808C201.407 58.488 201.839 58.04 202.159 57.464C202.479 56.872 202.639 56.168 202.639 55.352ZM212.664 44.24V62H209.304V44.24H212.664Z" fill="white"/>
<path d="M141.94 136.34H136.38L135.46 139H132.52L137.54 125.02H140.8L145.82 139H142.86L141.94 136.34ZM141.18 134.1L139.16 128.26L137.14 134.1H141.18ZM159.636 139H156.836L150.496 129.42V139H147.696V125.02H150.496L156.836 134.62V125.02H159.636V139ZM150.076 123.96C150.196 123.08 150.47 122.427 150.896 122C151.336 121.56 151.89 121.34 152.556 121.34C152.836 121.34 153.083 121.387 153.296 121.48C153.51 121.56 153.75 121.68 154.016 121.84C154.416 122.093 154.75 122.22 155.016 122.22C155.51 122.22 155.796 121.933 155.876 121.36H157.376C157.256 122.24 156.976 122.9 156.536 123.34C156.11 123.767 155.563 123.98 154.896 123.98C154.616 123.98 154.37 123.94 154.156 123.86C153.943 123.767 153.703 123.64 153.436 123.48C153.05 123.213 152.716 123.08 152.436 123.08C151.943 123.08 151.65 123.373 151.556 123.96H150.076ZM168.883 139.14C167.577 139.14 166.377 138.833 165.283 138.22C164.19 137.607 163.323 136.76 162.683 135.68C162.043 134.587 161.723 133.353 161.723 131.98C161.723 130.62 162.043 129.4 162.683 128.32C163.323 127.227 164.19 126.373 165.283 125.76C166.377 125.147 167.577 124.84 168.883 124.84C170.203 124.84 171.403 125.147 172.483 125.76C173.577 126.373 174.437 127.227 175.063 128.32C175.703 129.4 176.023 130.62 176.023 131.98C176.023 133.353 175.703 134.587 175.063 135.68C174.437 136.76 173.577 137.607 172.483 138.22C171.39 138.833 170.19 139.14 168.883 139.14ZM168.883 136.64C169.723 136.64 170.463 136.453 171.103 136.08C171.743 135.693 172.243 135.147 172.603 134.44C172.963 133.733 173.143 132.913 173.143 131.98C173.143 131.047 172.963 130.233 172.603 129.54C172.243 128.833 171.743 128.293 171.103 127.92C170.463 127.547 169.723 127.36 168.883 127.36C168.043 127.36 167.297 127.547 166.643 127.92C166.003 128.293 165.503 128.833 165.143 129.54C164.783 130.233 164.603 131.047 164.603 131.98C164.603 132.913 164.783 133.733 165.143 134.44C165.503 135.147 166.003 135.693 166.643 136.08C167.297 136.453 168.043 136.64 168.883 136.64ZM182.927 139.14C181.953 139.14 181.073 138.973 180.287 138.64C179.513 138.307 178.9 137.827 178.447 137.2C177.993 136.573 177.76 135.833 177.747 134.98H180.747C180.787 135.553 180.987 136.007 181.347 136.34C181.72 136.673 182.227 136.84 182.867 136.84C183.52 136.84 184.033 136.687 184.407 136.38C184.78 136.06 184.967 135.647 184.967 135.14C184.967 134.727 184.84 134.387 184.587 134.12C184.333 133.853 184.013 133.647 183.627 133.5C183.253 133.34 182.733 133.167 182.067 132.98C181.16 132.713 180.42 132.453 179.847 132.2C179.287 131.933 178.8 131.54 178.387 131.02C177.987 130.487 177.787 129.78 177.787 128.9C177.787 128.073 177.993 127.353 178.407 126.74C178.82 126.127 179.4 125.66 180.147 125.34C180.893 125.007 181.747 124.84 182.707 124.84C184.147 124.84 185.313 125.193 186.207 125.9C187.113 126.593 187.613 127.567 187.707 128.82H184.627C184.6 128.34 184.393 127.947 184.007 127.64C183.633 127.32 183.133 127.16 182.507 127.16C181.96 127.16 181.52 127.3 181.187 127.58C180.867 127.86 180.707 128.267 180.707 128.8C180.707 129.173 180.827 129.487 181.067 129.74C181.32 129.98 181.627 130.18 181.987 130.34C182.36 130.487 182.88 130.66 183.547 130.86C184.453 131.127 185.193 131.393 185.767 131.66C186.34 131.927 186.833 132.327 187.247 132.86C187.66 133.393 187.867 134.093 187.867 134.96C187.867 135.707 187.673 136.4 187.287 137.04C186.9 137.68 186.333 138.193 185.587 138.58C184.84 138.953 183.953 139.14 182.927 139.14Z" fill="white"/>
<path d="M102.74 126.16C103.34 129.32 105.18 130.9 108.26 130.9C110.38 130.9 111.88 129.96 112.76 128.08C113.64 126.2 114.08 123.14 114.08 118.9C113.2 120.14 112 121.1 110.48 121.78C108.96 122.46 107.26 122.8 105.38 122.8C102.82 122.8 100.54 122.28 98.54 121.24C96.54 120.16 94.96 118.58 93.8 116.5C92.68 114.38 92.12 111.82 92.12 108.82C92.12 105.86 92.72 103.28 93.92 101.08C95.16 98.88 96.9 97.18 99.14 95.98C101.42 94.78 104.1 94.18 107.18 94.18C113.1 94.18 117.24 96.02 119.6 99.7C121.96 103.38 123.14 108.8 123.14 115.96C123.14 121.16 122.66 125.46 121.7 128.86C120.78 132.22 119.2 134.78 116.96 136.54C114.76 138.3 111.74 139.18 107.9 139.18C104.86 139.18 102.26 138.58 100.1 137.38C97.98 136.18 96.34 134.6 95.18 132.64C94.06 130.68 93.42 128.52 93.26 126.16H102.74ZM107.72 114.7C109.4 114.7 110.74 114.2 111.74 113.2C112.74 112.16 113.24 110.76 113.24 109C113.24 107.08 112.72 105.6 111.68 104.56C110.64 103.52 109.24 103 107.48 103C105.72 103 104.32 103.54 103.28 104.62C102.28 105.66 101.78 107.1 101.78 108.94C101.78 110.66 102.28 112.06 103.28 113.14C104.32 114.18 105.8 114.7 107.72 114.7Z" fill="white"/>
<circle cx="32.5" cy="68.5" r="32.5" fill="white"/>
<circle cx="32.5" cy="68.5" r="32.5" fill="white"/>
<circle cx="32.5" cy="68.5" r="32.5" fill="white"/>
<circle cx="32.5" cy="68.5" r="32.5" fill="white"/>
<circle cx="32.5" cy="68.5" r="32.5" fill="white"/>
<circle cx="32.5" cy="68.5" r="32.5" fill="white"/>
<g clip-path="url(#clip0_127_72)">
<path d="M24.6719 59.843C23.8872 60.0648 23.1687 60.4751 22.579 61.0381C21.9892 61.6012 21.5461 62.2999 21.2883 63.0735L14 84.9375L15.1477 86.0852L26.875 74.3578C26.6414 73.8688 26.5 73.3281 26.5 72.75C26.5 70.6789 28.1789 69 30.25 69C32.3211 69 34 70.6789 34 72.75C34 74.8211 32.3211 76.5 30.25 76.5C29.6719 76.5 29.1312 76.3586 28.6422 76.125L16.9148 87.8524L18.0625 89L39.9266 81.7117C40.7001 81.4539 41.3988 81.0108 41.9619 80.421C42.525 79.8313 42.9353 79.1128 43.157 78.3281L46.5 66.5L36.5 56.5L24.6719 59.843ZM52.9016 54.7945L48.2055 50.0984C46.7406 48.6336 44.3648 48.6336 42.9 50.0984L38.482 54.5164L48.4836 64.518L52.9016 60.1C54.3664 58.6352 54.3664 56.2602 52.9016 54.7945V54.7945Z" fill="#7F88ED"/>
</g>
<defs>
<clipPath id="clip0_127_72">
<rect width="40" height="40" fill="white" transform="translate(14 49)"/>
</clipPath>
</defs>
</svg>
