<svg width="227" height="161" viewBox="0 0 227 161" fill="none" xmlns="http://www.w3.org/2000/svg">
<path d="M98.512 9.248C100.272 9.248 101.816 9.592 103.144 10.28C104.488 10.968 105.52 11.952 106.24 13.232C106.976 14.496 107.344 15.968 107.344 17.648C107.344 19.328 106.976 20.8 106.24 22.064C105.52 23.312 104.488 24.28 103.144 24.968C101.816 25.656 100.272 26 98.512 26H92.656V9.248H98.512ZM98.392 23.144C100.152 23.144 101.512 22.664 102.472 21.704C103.432 20.744 103.912 19.392 103.912 17.648C103.912 15.904 103.432 14.544 102.472 13.568C101.512 12.576 100.152 12.08 98.392 12.08H96.016V23.144H98.392ZM111.563 11.12C110.971 11.12 110.475 10.936 110.075 10.568C109.691 10.184 109.499 9.712 109.499 9.152C109.499 8.592 109.691 8.128 110.075 7.76C110.475 7.376 110.971 7.184 111.563 7.184C112.155 7.184 112.643 7.376 113.027 7.76C113.427 8.128 113.627 8.592 113.627 9.152C113.627 9.712 113.427 10.184 113.027 10.568C112.643 10.936 112.155 11.12 111.563 11.12ZM113.219 12.704V26H109.859V12.704H113.219ZM121.627 26.216C120.539 26.216 119.563 26.024 118.699 25.64C117.835 25.24 117.147 24.704 116.635 24.032C116.139 23.36 115.867 22.616 115.819 21.8H119.203C119.267 22.312 119.515 22.736 119.947 23.072C120.395 23.408 120.947 23.576 121.603 23.576C122.243 23.576 122.739 23.448 123.091 23.192C123.459 22.936 123.643 22.608 123.643 22.208C123.643 21.776 123.419 21.456 122.971 21.248C122.539 21.024 121.843 20.784 120.883 20.528C119.891 20.288 119.075 20.04 118.435 19.784C117.811 19.528 117.267 19.136 116.803 18.608C116.355 18.08 116.131 17.368 116.131 16.472C116.131 15.736 116.339 15.064 116.755 14.456C117.187 13.848 117.795 13.368 118.579 13.016C119.379 12.664 120.315 12.488 121.387 12.488C122.971 12.488 124.235 12.888 125.179 13.688C126.123 14.472 126.643 15.536 126.739 16.88H123.523C123.475 16.352 123.251 15.936 122.851 15.632C122.467 15.312 121.947 15.152 121.291 15.152C120.683 15.152 120.211 15.264 119.875 15.488C119.555 15.712 119.395 16.024 119.395 16.424C119.395 16.872 119.619 17.216 120.067 17.456C120.515 17.68 121.211 17.912 122.155 18.152C123.115 18.392 123.907 18.64 124.531 18.896C125.155 19.152 125.691 19.552 126.139 20.096C126.603 20.624 126.843 21.328 126.859 22.208C126.859 22.976 126.643 23.664 126.211 24.272C125.795 24.88 125.187 25.36 124.387 25.712C123.603 26.048 122.683 26.216 121.627 26.216ZM141.977 19.064C141.977 19.544 141.945 19.976 141.881 20.36H132.161C132.241 21.32 132.577 22.072 133.169 22.616C133.761 23.16 134.489 23.432 135.353 23.432C136.601 23.432 137.489 22.896 138.017 21.824H141.641C141.257 23.104 140.521 24.16 139.433 24.992C138.345 25.808 137.009 26.216 135.425 26.216C134.145 26.216 132.993 25.936 131.969 25.376C130.961 24.8 130.169 23.992 129.593 22.952C129.033 21.912 128.753 20.712 128.753 19.352C128.753 17.976 129.033 16.768 129.593 15.728C130.153 14.688 130.937 13.888 131.945 13.328C132.953 12.768 134.113 12.488 135.425 12.488C136.689 12.488 137.817 12.76 138.809 13.304C139.817 13.848 140.593 14.624 141.137 15.632C141.697 16.624 141.977 17.768 141.977 19.064ZM138.497 18.104C138.481 17.24 138.169 16.552 137.561 16.04C136.953 15.512 136.209 15.248 135.329 15.248C134.497 15.248 133.793 15.504 133.217 16.016C132.657 16.512 132.313 17.208 132.185 18.104H138.497ZM151.797 12.512C153.381 12.512 154.661 13.016 155.637 14.024C156.613 15.016 157.101 16.408 157.101 18.2V26H153.741V18.656C153.741 17.6 153.477 16.792 152.949 16.232C152.421 15.656 151.701 15.368 150.789 15.368C149.861 15.368 149.125 15.656 148.581 16.232C148.053 16.792 147.789 17.6 147.789 18.656V26H144.429V12.704H147.789V14.36C148.237 13.784 148.805 13.336 149.493 13.016C150.197 12.68 150.965 12.512 151.797 12.512ZM146.781 11.432C146.925 10.376 147.253 9.592 147.765 9.08C148.293 8.552 148.957 8.288 149.757 8.288C150.093 8.288 150.389 8.344 150.645 8.456C150.901 8.552 151.189 8.696 151.509 8.888C151.989 9.192 152.389 9.344 152.709 9.344C153.301 9.344 153.645 9 153.741 8.312H155.541C155.397 9.368 155.061 10.16 154.533 10.688C154.021 11.2 153.365 11.456 152.565 11.456C152.229 11.456 151.933 11.408 151.677 11.312C151.421 11.2 151.133 11.048 150.813 10.856C150.349 10.536 149.949 10.376 149.613 10.376C149.021 10.376 148.669 10.728 148.557 11.432H146.781ZM166.201 26.216C164.921 26.216 163.769 25.936 162.745 25.376C161.721 24.8 160.913 23.992 160.321 22.952C159.745 21.912 159.457 20.712 159.457 19.352C159.457 17.992 159.753 16.792 160.345 15.752C160.953 14.712 161.777 13.912 162.817 13.352C163.857 12.776 165.017 12.488 166.297 12.488C167.577 12.488 168.737 12.776 169.777 13.352C170.817 13.912 171.633 14.712 172.225 15.752C172.833 16.792 173.137 17.992 173.137 19.352C173.137 20.712 172.825 21.912 172.201 22.952C171.593 23.992 170.761 24.8 169.705 25.376C168.665 25.936 167.497 26.216 166.201 26.216ZM166.201 23.288C166.809 23.288 167.377 23.144 167.905 22.856C168.449 22.552 168.881 22.104 169.201 21.512C169.521 20.92 169.681 20.2 169.681 19.352C169.681 18.088 169.345 17.12 168.673 16.448C168.017 15.76 167.209 15.416 166.249 15.416C165.289 15.416 164.481 15.76 163.825 16.448C163.185 17.12 162.865 18.088 162.865 19.352C162.865 20.616 163.177 21.592 163.801 22.28C164.441 22.952 165.241 23.288 166.201 23.288ZM180.456 19.304C180.456 17.96 180.72 16.768 181.248 15.728C181.792 14.688 182.528 13.888 183.456 13.328C184.384 12.768 185.416 12.488 186.552 12.488C187.416 12.488 188.24 12.68 189.024 13.064C189.808 13.432 190.432 13.928 190.896 14.552V8.24H194.304V26H190.896V24.032C190.48 24.688 189.896 25.216 189.144 25.616C188.392 26.016 187.52 26.216 186.528 26.216C185.408 26.216 184.384 25.928 183.456 25.352C182.528 24.776 181.792 23.968 181.248 22.928C180.72 21.872 180.456 20.664 180.456 19.304ZM190.92 19.352C190.92 18.536 190.76 17.84 190.44 17.264C190.12 16.672 189.688 16.224 189.144 15.92C188.6 15.6 188.016 15.44 187.392 15.44C186.768 15.44 186.192 15.592 185.664 15.896C185.136 16.2 184.704 16.648 184.368 17.24C184.048 17.816 183.888 18.504 183.888 19.304C183.888 20.104 184.048 20.808 184.368 21.416C184.704 22.008 185.136 22.464 185.664 22.784C186.208 23.104 186.784 23.264 187.392 23.264C188.016 23.264 188.6 23.112 189.144 22.808C189.688 22.488 190.12 22.04 190.44 21.464C190.76 20.872 190.92 20.168 190.92 19.352ZM209.946 19.064C209.946 19.544 209.914 19.976 209.85 20.36H200.13C200.21 21.32 200.546 22.072 201.138 22.616C201.73 23.16 202.458 23.432 203.322 23.432C204.57 23.432 205.458 22.896 205.986 21.824H209.61C209.226 23.104 208.49 24.16 207.402 24.992C206.314 25.808 204.978 26.216 203.394 26.216C202.114 26.216 200.962 25.936 199.938 25.376C198.93 24.8 198.138 23.992 197.562 22.952C197.002 21.912 196.722 20.712 196.722 19.352C196.722 17.976 197.002 16.768 197.562 15.728C198.122 14.688 198.906 13.888 199.914 13.328C200.922 12.768 202.082 12.488 203.394 12.488C204.658 12.488 205.786 12.76 206.778 13.304C207.786 13.848 208.562 14.624 209.106 15.632C209.666 16.624 209.946 17.768 209.946 19.064ZM206.466 18.104C206.45 17.24 206.138 16.552 205.53 16.04C204.922 15.512 204.178 15.248 203.298 15.248C202.466 15.248 201.762 15.504 201.186 16.016C200.626 16.512 200.282 17.208 200.154 18.104H206.466ZM96.016 50.624C96.448 50.016 97.04 49.512 97.792 49.112C98.56 48.696 99.432 48.488 100.408 48.488C101.544 48.488 102.568 48.768 103.48 49.328C104.408 49.888 105.136 50.688 105.664 51.728C106.208 52.752 106.48 53.944 106.48 55.304C106.48 56.664 106.208 57.872 105.664 58.928C105.136 59.968 104.408 60.776 103.48 61.352C102.568 61.928 101.544 62.216 100.408 62.216C99.432 62.216 98.568 62.016 97.816 61.616C97.08 61.216 96.48 60.712 96.016 60.104V68.336H92.656V48.704H96.016V50.624ZM103.048 55.304C103.048 54.504 102.88 53.816 102.544 53.24C102.224 52.648 101.792 52.2 101.248 51.896C100.72 51.592 100.144 51.44 99.52 51.44C98.912 51.44 98.336 51.6 97.792 51.92C97.264 52.224 96.832 52.672 96.496 53.264C96.176 53.856 96.016 54.552 96.016 55.352C96.016 56.152 96.176 56.848 96.496 57.44C96.832 58.032 97.264 58.488 97.792 58.808C98.336 59.112 98.912 59.264 99.52 59.264C100.144 59.264 100.72 59.104 101.248 58.784C101.792 58.464 102.224 58.008 102.544 57.416C102.88 56.824 103.048 56.12 103.048 55.304ZM112.282 50.768C112.714 50.064 113.274 49.512 113.962 49.112C114.666 48.712 115.466 48.512 116.362 48.512V52.04H115.474C114.418 52.04 113.618 52.288 113.074 52.784C112.546 53.28 112.282 54.144 112.282 55.376V62H108.922V48.704H112.282V50.768ZM124.529 62.216C123.249 62.216 122.097 61.936 121.073 61.376C120.049 60.8 119.241 59.992 118.649 58.952C118.073 57.912 117.785 56.712 117.785 55.352C117.785 53.992 118.081 52.792 118.673 51.752C119.281 50.712 120.105 49.912 121.145 49.352C122.185 48.776 123.345 48.488 124.625 48.488C125.905 48.488 127.065 48.776 128.105 49.352C129.145 49.912 129.961 50.712 130.553 51.752C131.161 52.792 131.465 53.992 131.465 55.352C131.465 56.712 131.153 57.912 130.529 58.952C129.921 59.992 129.089 60.8 128.033 61.376C126.993 61.936 125.825 62.216 124.529 62.216ZM124.529 59.288C125.137 59.288 125.705 59.144 126.233 58.856C126.777 58.552 127.209 58.104 127.529 57.512C127.849 56.92 128.009 56.2 128.009 55.352C128.009 54.088 127.673 53.12 127.001 52.448C126.345 51.76 125.537 51.416 124.577 51.416C123.617 51.416 122.809 51.76 122.153 52.448C121.513 53.12 121.193 54.088 121.193 55.352C121.193 56.616 121.505 57.592 122.129 58.28C122.769 58.952 123.569 59.288 124.529 59.288ZM133.065 55.304C133.065 53.96 133.329 52.768 133.857 51.728C134.401 50.688 135.137 49.888 136.065 49.328C136.993 48.768 138.025 48.488 139.161 48.488C140.025 48.488 140.849 48.68 141.633 49.064C142.417 49.432 143.041 49.928 143.505 50.552V44.24H146.913V62H143.505V60.032C143.089 60.688 142.505 61.216 141.753 61.616C141.001 62.016 140.129 62.216 139.137 62.216C138.017 62.216 136.993 61.928 136.065 61.352C135.137 60.776 134.401 59.968 133.857 58.928C133.329 57.872 133.065 56.664 133.065 55.304ZM143.529 55.352C143.529 54.536 143.369 53.84 143.049 53.264C142.729 52.672 142.297 52.224 141.753 51.92C141.209 51.6 140.625 51.44 140.001 51.44C139.377 51.44 138.801 51.592 138.273 51.896C137.745 52.2 137.313 52.648 136.977 53.24C136.657 53.816 136.497 54.504 136.497 55.304C136.497 56.104 136.657 56.808 136.977 57.416C137.313 58.008 137.745 58.464 138.273 58.784C138.817 59.104 139.393 59.264 140.001 59.264C140.625 59.264 141.209 59.112 141.753 58.808C142.297 58.488 142.729 58.04 143.049 57.464C143.369 56.872 143.529 56.168 143.529 55.352ZM162.747 48.704V62H159.363V60.32C158.931 60.896 158.363 61.352 157.659 61.688C156.971 62.008 156.219 62.168 155.403 62.168C154.363 62.168 153.443 61.952 152.643 61.52C151.843 61.072 151.211 60.424 150.747 59.576C150.299 58.712 150.075 57.688 150.075 56.504V48.704H153.435V56.024C153.435 57.08 153.699 57.896 154.227 58.472C154.755 59.032 155.475 59.312 156.387 59.312C157.315 59.312 158.043 59.032 158.571 58.472C159.099 57.896 159.363 57.08 159.363 56.024V48.704H162.747ZM165.198 55.352C165.198 53.976 165.478 52.776 166.038 51.752C166.598 50.712 167.374 49.912 168.366 49.352C169.358 48.776 170.494 48.488 171.774 48.488C173.422 48.488 174.782 48.904 175.854 49.736C176.942 50.552 177.67 51.704 178.038 53.192H174.414C174.222 52.616 173.894 52.168 173.43 51.848C172.982 51.512 172.422 51.344 171.75 51.344C170.79 51.344 170.03 51.696 169.47 52.4C168.91 53.088 168.63 54.072 168.63 55.352C168.63 56.616 168.91 57.6 169.47 58.304C170.03 58.992 170.79 59.336 171.75 59.336C173.11 59.336 173.998 58.728 174.414 57.512H178.038C177.67 58.952 176.942 60.096 175.854 60.944C174.766 61.792 173.406 62.216 171.774 62.216C170.494 62.216 169.358 61.936 168.366 61.376C167.374 60.8 166.598 60 166.038 58.976C165.478 57.936 165.198 56.728 165.198 55.352ZM184.412 51.464V57.896C184.412 58.344 184.516 58.672 184.724 58.88C184.948 59.072 185.316 59.168 185.828 59.168H187.388V62H185.276C182.444 62 181.028 60.624 181.028 57.872V51.464H179.444V48.704H181.028V45.416H184.412V48.704H187.388V51.464H184.412ZM195.708 62.216C194.428 62.216 193.276 61.936 192.252 61.376C191.228 60.8 190.42 59.992 189.828 58.952C189.252 57.912 188.964 56.712 188.964 55.352C188.964 53.992 189.26 52.792 189.852 51.752C190.46 50.712 191.284 49.912 192.324 49.352C193.364 48.776 194.524 48.488 195.804 48.488C197.084 48.488 198.244 48.776 199.284 49.352C200.324 49.912 201.14 50.712 201.732 51.752C202.34 52.792 202.644 53.992 202.644 55.352C202.644 56.712 202.332 57.912 201.708 58.952C201.1 59.992 200.268 60.8 199.212 61.376C198.172 61.936 197.004 62.216 195.708 62.216ZM195.708 59.288C196.316 59.288 196.884 59.144 197.412 58.856C197.956 58.552 198.388 58.104 198.708 57.512C199.028 56.92 199.188 56.2 199.188 55.352C199.188 54.088 198.852 53.12 198.18 52.448C197.524 51.76 196.716 51.416 195.756 51.416C194.796 51.416 193.988 51.76 193.332 52.448C192.692 53.12 192.372 54.088 192.372 55.352C192.372 56.616 192.684 57.592 193.308 58.28C193.948 58.952 194.748 59.288 195.708 59.288Z" fill="white"/>
<path d="M141.94 134.34H136.38L135.46 137H132.52L137.54 123.02H140.8L145.82 137H142.86L141.94 134.34ZM141.18 132.1L139.16 126.26L137.14 132.1H141.18ZM159.636 137H156.836L150.496 127.42V137H147.696V123.02H150.496L156.836 132.62V123.02H159.636V137ZM150.076 121.96C150.196 121.08 150.47 120.427 150.896 120C151.336 119.56 151.89 119.34 152.556 119.34C152.836 119.34 153.083 119.387 153.296 119.48C153.51 119.56 153.75 119.68 154.016 119.84C154.416 120.093 154.75 120.22 155.016 120.22C155.51 120.22 155.796 119.933 155.876 119.36H157.376C157.256 120.24 156.976 120.9 156.536 121.34C156.11 121.767 155.563 121.98 154.896 121.98C154.616 121.98 154.37 121.94 154.156 121.86C153.943 121.767 153.703 121.64 153.436 121.48C153.05 121.213 152.716 121.08 152.436 121.08C151.943 121.08 151.65 121.373 151.556 121.96H150.076ZM168.883 137.14C167.577 137.14 166.377 136.833 165.283 136.22C164.19 135.607 163.323 134.76 162.683 133.68C162.043 132.587 161.723 131.353 161.723 129.98C161.723 128.62 162.043 127.4 162.683 126.32C163.323 125.227 164.19 124.373 165.283 123.76C166.377 123.147 167.577 122.84 168.883 122.84C170.203 122.84 171.403 123.147 172.483 123.76C173.577 124.373 174.437 125.227 175.063 126.32C175.703 127.4 176.023 128.62 176.023 129.98C176.023 131.353 175.703 132.587 175.063 133.68C174.437 134.76 173.577 135.607 172.483 136.22C171.39 136.833 170.19 137.14 168.883 137.14ZM168.883 134.64C169.723 134.64 170.463 134.453 171.103 134.08C171.743 133.693 172.243 133.147 172.603 132.44C172.963 131.733 173.143 130.913 173.143 129.98C173.143 129.047 172.963 128.233 172.603 127.54C172.243 126.833 171.743 126.293 171.103 125.92C170.463 125.547 169.723 125.36 168.883 125.36C168.043 125.36 167.297 125.547 166.643 125.92C166.003 126.293 165.503 126.833 165.143 127.54C164.783 128.233 164.603 129.047 164.603 129.98C164.603 130.913 164.783 131.733 165.143 132.44C165.503 133.147 166.003 133.693 166.643 134.08C167.297 134.453 168.043 134.64 168.883 134.64ZM182.927 137.14C181.953 137.14 181.073 136.973 180.287 136.64C179.513 136.307 178.9 135.827 178.447 135.2C177.993 134.573 177.76 133.833 177.747 132.98H180.747C180.787 133.553 180.987 134.007 181.347 134.34C181.72 134.673 182.227 134.84 182.867 134.84C183.52 134.84 184.033 134.687 184.407 134.38C184.78 134.06 184.967 133.647 184.967 133.14C184.967 132.727 184.84 132.387 184.587 132.12C184.333 131.853 184.013 131.647 183.627 131.5C183.253 131.34 182.733 131.167 182.067 130.98C181.16 130.713 180.42 130.453 179.847 130.2C179.287 129.933 178.8 129.54 178.387 129.02C177.987 128.487 177.787 127.78 177.787 126.9C177.787 126.073 177.993 125.353 178.407 124.74C178.82 124.127 179.4 123.66 180.147 123.34C180.893 123.007 181.747 122.84 182.707 122.84C184.147 122.84 185.313 123.193 186.207 123.9C187.113 124.593 187.613 125.567 187.707 126.82H184.627C184.6 126.34 184.393 125.947 184.007 125.64C183.633 125.32 183.133 125.16 182.507 125.16C181.96 125.16 181.52 125.3 181.187 125.58C180.867 125.86 180.707 126.267 180.707 126.8C180.707 127.173 180.827 127.487 181.067 127.74C181.32 127.98 181.627 128.18 181.987 128.34C182.36 128.487 182.88 128.66 183.547 128.86C184.453 129.127 185.193 129.393 185.767 129.66C186.34 129.927 186.833 130.327 187.247 130.86C187.66 131.393 187.867 132.093 187.867 132.96C187.867 133.707 187.673 134.4 187.287 135.04C186.9 135.68 186.333 136.193 185.587 136.58C184.84 136.953 183.953 137.14 182.927 137.14Z" fill="white"/>
<path d="M92.06 105.56C92.22 101.28 93.62 97.98 96.26 95.66C98.9 93.34 102.48 92.18 107 92.18C110 92.18 112.56 92.7 114.68 93.74C116.84 94.78 118.46 96.2 119.54 98C120.66 99.8 121.22 101.82 121.22 104.06C121.22 106.7 120.56 108.86 119.24 110.54C117.92 112.18 116.38 113.3 114.62 113.9V114.14C116.9 114.9 118.7 116.16 120.02 117.92C121.34 119.68 122 121.94 122 124.7C122 127.18 121.42 129.38 120.26 131.3C119.14 133.18 117.48 134.66 115.28 135.74C113.12 136.82 110.54 137.36 107.54 137.36C102.74 137.36 98.9 136.18 96.02 133.82C93.18 131.46 91.68 127.9 91.52 123.14H101.48C101.52 124.9 102.02 126.3 102.98 127.34C103.94 128.34 105.34 128.84 107.18 128.84C108.74 128.84 109.94 128.4 110.78 127.52C111.66 126.6 112.1 125.4 112.1 123.92C112.1 122 111.48 120.62 110.24 119.78C109.04 118.9 107.1 118.46 104.42 118.46H102.5V110.12H104.42C106.46 110.12 108.1 109.78 109.34 109.1C110.62 108.38 111.26 107.12 111.26 105.32C111.26 103.88 110.86 102.76 110.06 101.96C109.26 101.16 108.16 100.76 106.76 100.76C105.24 100.76 104.1 101.22 103.34 102.14C102.62 103.06 102.2 104.2 102.08 105.56H92.06Z" fill="white"/>
<circle cx="32.5" cy="68.5" r="32.5" fill="white"/>
<circle cx="32.5" cy="68.5" r="32.5" fill="white"/>
<circle cx="32.5" cy="68.5" r="32.5" fill="white"/>
<circle cx="32.5" cy="68.5" r="32.5" fill="white"/>
<circle cx="32.5" cy="68.5" r="32.5" fill="white"/>
<circle cx="32.5" cy="68.5" r="32.5" fill="white"/>
<path d="M51 78H35.8463C35.8 79.2381 34.9269 80 33.8 80H30C28.8319 80 27.9362 78.9081 27.9519 78H13C12.45 78 12 78.45 12 79V80C12 82.2 13.8 84 16 84H48C50.2 84 52 82.2 52 80V79C52 78.45 51.55 78 51 78ZM48 55C48 53.35 46.65 52 45 52H19C17.35 52 16 53.35 16 55V76H48V55ZM44 72H20V56H44V72Z" fill="#7F88ED"/>
<rect x="22" y="58" width="20" height="12" fill="#7F88ED"/>
</svg>
