<svg width="165" height="22" viewBox="0 0 165 22" fill="none" xmlns="http://www.w3.org/2000/svg">
<path d="M13 0.435V3.825H4.27V9.195H10.96V12.525H4.27V21.375H0.0700002V0.435H13ZM19.5782 3.825V9.075H26.6282V12.405H19.5782V17.955H27.5282V21.375H15.3782V0.404998H27.5282V3.825H19.5782ZM41.545 21.375L36.925 13.215H34.945V21.375H30.745V0.435H38.605C40.225 0.435 41.605 0.724999 42.745 1.305C43.885 1.865 44.735 2.635 45.295 3.615C45.875 4.575 46.165 5.655 46.165 6.855C46.165 8.235 45.765 9.485 44.965 10.605C44.165 11.705 42.975 12.465 41.395 12.885L46.405 21.375H41.545ZM34.945 10.065H38.455C39.595 10.065 40.445 9.795 41.005 9.255C41.565 8.695 41.845 7.925 41.845 6.945C41.845 5.985 41.565 5.245 41.005 4.725C40.445 4.185 39.595 3.915 38.455 3.915H34.945V10.065Z" fill="white"/>
<path d="M72.4912 0.435V21.375H68.2912V12.465H59.3212V21.375H55.1212V0.435H59.3212V9.045H68.2912V0.435H72.4912ZM80.1651 0.435V13.395C80.1651 14.815 80.5351 15.905 81.2751 16.665C82.0151 17.405 83.0551 17.775 84.3951 17.775C85.7551 17.775 86.8051 17.405 87.5451 16.665C88.2851 15.905 88.6551 14.815 88.6551 13.395V0.435H92.8851V13.365C92.8851 15.145 92.4951 16.655 91.7151 17.895C90.9551 19.115 89.9251 20.035 88.6251 20.655C87.3451 21.275 85.9151 21.585 84.3351 21.585C82.7751 21.585 81.3551 21.275 80.0751 20.655C78.8151 20.035 77.8151 19.115 77.0751 17.895C76.3351 16.655 75.9651 15.145 75.9651 13.365V0.435H80.1651ZM109.183 17.385H100.843L99.463 21.375H95.053L102.583 0.404998H107.473L115.003 21.375H110.563L109.183 17.385ZM108.043 14.025L105.013 5.265L101.983 14.025H108.043ZM128.018 21.375L123.398 13.215H121.418V21.375H117.218V0.435H125.078C126.698 0.435 128.078 0.724999 129.218 1.305C130.358 1.865 131.208 2.635 131.768 3.615C132.348 4.575 132.638 5.655 132.638 6.855C132.638 8.235 132.238 9.485 131.438 10.605C130.638 11.705 129.448 12.465 127.868 12.885L132.878 21.375H128.018ZM121.418 10.065H124.928C126.068 10.065 126.918 9.795 127.478 9.255C128.038 8.695 128.318 7.925 128.318 6.945C128.318 5.985 128.038 5.245 127.478 4.725C126.918 4.185 126.068 3.915 124.928 3.915H121.418V10.065ZM150.086 0.435V3.825H144.506V21.375H140.306V3.825H134.726V0.435H150.086ZM156.751 3.825V9.075H163.801V12.405H156.751V17.955H164.701V21.375H152.551V0.404998H164.701V3.825H156.751Z" fill="#B1B1B1"/>
</svg>
