<svg width="20" height="20" viewBox="0 0 20 20" fill="none" xmlns="http://www.w3.org/2000/svg">
<path d="M7.40502 5.97487C7.55749 5.97895 7.72652 5.9872 7.88734 6.34418C7.99399 6.58183 8.17364 7.01933 8.31998 7.37572C8.43385 7.65304 8.52756 7.88125 8.55101 7.92796C8.6046 8.03462 8.63758 8.15771 8.5675 8.30129C8.55924 8.31823 8.55144 8.33442 8.54392 8.35002C8.48771 8.46668 8.4477 8.5497 8.35317 8.65827C8.3143 8.70289 8.27381 8.75182 8.23347 8.80057C8.16251 8.8863 8.09202 8.97149 8.0316 9.03167C7.92443 9.13827 7.81309 9.25325 7.93675 9.46658C8.06048 9.67991 8.49332 10.3815 9.13229 10.9478C9.81923 11.5593 10.4166 11.8171 10.7185 11.9474C10.7772 11.9727 10.8246 11.9931 10.8595 12.0105C11.0739 12.1172 11.2017 12.1007 11.3253 11.9572C11.4491 11.8135 11.8612 11.3334 12.0056 11.1201C12.1457 10.9068 12.29 10.9396 12.4879 11.0134C12.6857 11.0873 13.741 11.6043 13.9554 11.7109C13.9977 11.732 14.0374 11.751 14.0741 11.7686C14.2233 11.8402 14.3246 11.8888 14.3676 11.9612C14.4212 12.0515 14.4212 12.4782 14.244 12.9788C14.0626 13.4794 13.1886 13.9594 12.7929 13.9963C12.7554 13.9999 12.7181 14.0044 12.6798 14.009C12.3171 14.0529 11.8567 14.1086 10.2164 13.4629C8.19526 12.6681 6.86108 10.6962 6.59134 10.2975C6.57004 10.266 6.55538 10.2443 6.54754 10.2338L6.54298 10.2277C6.42025 10.0635 5.66946 9.05888 5.66946 8.02237C5.66946 7.03067 6.15798 6.51438 6.38081 6.27888C6.39493 6.26396 6.40798 6.25016 6.41978 6.23744C6.61762 6.02411 6.84852 5.97078 6.99277 5.97078C7.1371 5.97078 7.28136 5.97078 7.40502 5.97487Z" fill="white"/>
<path fill-rule="evenodd" clip-rule="evenodd" d="M1.82021 17.7762C1.75203 18.0237 1.97744 18.2521 2.22581 18.1872L6.06526 17.1844C7.27722 17.8409 8.64173 18.1896 10.031 18.1896H10.0351C14.6068 18.1896 18.3334 14.4846 18.3334 9.93021C18.3334 7.72278 17.4718 5.64661 15.9053 4.08741C14.3389 2.52829 12.257 1.66666 10.035 1.66666C5.46346 1.66666 1.73682 5.3717 1.73682 9.92612C1.7363 11.375 2.11873 12.7985 2.84572 14.0537L1.82021 17.7762ZM4.05082 14.3857C4.13984 14.0626 4.09537 13.7173 3.9274 13.4273C3.31061 12.3623 2.98638 11.1546 2.98682 9.92612C2.98682 6.06798 6.14787 2.91666 10.035 2.91666C11.9266 2.91666 13.6914 3.64748 15.0235 4.97337C16.3541 6.29779 17.0834 8.05508 17.0834 9.93021C17.0834 13.7883 13.9224 16.9396 10.0351 16.9396H10.031C8.85057 16.9396 7.69058 16.6432 6.66061 16.0853C6.38184 15.9343 6.05611 15.8948 5.74936 15.975L3.44736 16.5762L4.05082 14.3857Z" fill="white"/>
</svg>
